<mxfile host="Electron" agent="Mozilla/5.0 (Windows NT 10.0; Win64; x64) AppleWebKit/537.36 (KHTML, like Gecko) draw.io/25.0.2 Chrome/128.0.6613.186 Electron/32.2.5 Safari/537.36" version="25.0.2">
  <diagram name="Página-1" id="FPyvEN9GUfrYny8a8oVT">
    <mxGraphModel dx="1434" dy="836" grid="1" gridSize="10" guides="1" tooltips="1" connect="1" arrows="1" fold="1" page="1" pageScale="1" pageWidth="827" pageHeight="1169" math="0" shadow="0">
      <root>
        <mxCell id="0" />
        <mxCell id="1" parent="0" />
        <mxCell id="EWqLKH0IZXW_5swnIQfz-3" style="edgeStyle=orthogonalEdgeStyle;rounded=0;orthogonalLoop=1;jettySize=auto;html=1;exitX=0.5;exitY=1;exitDx=0;exitDy=0;entryX=0.5;entryY=0;entryDx=0;entryDy=0;" edge="1" parent="1" source="EWqLKH0IZXW_5swnIQfz-1" target="EWqLKH0IZXW_5swnIQfz-2">
          <mxGeometry relative="1" as="geometry" />
        </mxCell>
        <mxCell id="EWqLKH0IZXW_5swnIQfz-1" value="WHILE(TRUE)" style="rhombus;whiteSpace=wrap;html=1;" vertex="1" parent="1">
          <mxGeometry x="30" y="120" width="150" height="80" as="geometry" />
        </mxCell>
        <mxCell id="EWqLKH0IZXW_5swnIQfz-5" value="NO" style="edgeStyle=orthogonalEdgeStyle;rounded=0;orthogonalLoop=1;jettySize=auto;html=1;exitX=1;exitY=0.5;exitDx=0;exitDy=0;entryX=0;entryY=0.5;entryDx=0;entryDy=0;" edge="1" parent="1" source="EWqLKH0IZXW_5swnIQfz-2" target="EWqLKH0IZXW_5swnIQfz-4">
          <mxGeometry x="-0.1034" y="10" relative="1" as="geometry">
            <mxPoint as="offset" />
          </mxGeometry>
        </mxCell>
        <mxCell id="EWqLKH0IZXW_5swnIQfz-2" value="Dibujar?&lt;div&gt;(DI_01)&lt;/div&gt;" style="rhombus;whiteSpace=wrap;html=1;" vertex="1" parent="1">
          <mxGeometry x="38.75" y="220" width="132.5" height="80" as="geometry" />
        </mxCell>
        <mxCell id="EWqLKH0IZXW_5swnIQfz-21" value="SI" style="edgeStyle=orthogonalEdgeStyle;rounded=0;orthogonalLoop=1;jettySize=auto;html=1;exitX=0.5;exitY=1;exitDx=0;exitDy=0;entryX=0.5;entryY=0;entryDx=0;entryDy=0;" edge="1" parent="1" source="EWqLKH0IZXW_5swnIQfz-4" target="EWqLKH0IZXW_5swnIQfz-20">
          <mxGeometry y="-16" relative="1" as="geometry">
            <mxPoint as="offset" />
          </mxGeometry>
        </mxCell>
        <mxCell id="EWqLKH0IZXW_5swnIQfz-22" value="NO" style="edgeStyle=orthogonalEdgeStyle;rounded=0;orthogonalLoop=1;jettySize=auto;html=1;exitX=1;exitY=0.5;exitDx=0;exitDy=0;entryX=1;entryY=0.5;entryDx=0;entryDy=0;" edge="1" parent="1" source="EWqLKH0IZXW_5swnIQfz-4" target="EWqLKH0IZXW_5swnIQfz-1">
          <mxGeometry x="-0.8216" y="-7" relative="1" as="geometry">
            <mxPoint x="1" as="offset" />
          </mxGeometry>
        </mxCell>
        <mxCell id="EWqLKH0IZXW_5swnIQfz-4" value="Mantenimiento?&lt;div&gt;(DI_02)&lt;/div&gt;" style="rhombus;whiteSpace=wrap;html=1;" vertex="1" parent="1">
          <mxGeometry x="243.75" y="220" width="132.5" height="80" as="geometry" />
        </mxCell>
        <mxCell id="EWqLKH0IZXW_5swnIQfz-9" style="edgeStyle=orthogonalEdgeStyle;rounded=0;orthogonalLoop=1;jettySize=auto;html=1;exitX=0.5;exitY=1;exitDx=0;exitDy=0;entryX=0.5;entryY=0;entryDx=0;entryDy=0;" edge="1" parent="1" source="EWqLKH0IZXW_5swnIQfz-6" target="EWqLKH0IZXW_5swnIQfz-8">
          <mxGeometry relative="1" as="geometry" />
        </mxCell>
        <mxCell id="EWqLKH0IZXW_5swnIQfz-6" value="Ir a HOME" style="rounded=0;whiteSpace=wrap;html=1;" vertex="1" parent="1">
          <mxGeometry x="56.25" y="410" width="97.5" height="40" as="geometry" />
        </mxCell>
        <mxCell id="EWqLKH0IZXW_5swnIQfz-11" style="edgeStyle=orthogonalEdgeStyle;rounded=0;orthogonalLoop=1;jettySize=auto;html=1;exitX=0.5;exitY=1;exitDx=0;exitDy=0;entryX=0.5;entryY=0;entryDx=0;entryDy=0;" edge="1" parent="1" source="EWqLKH0IZXW_5swnIQfz-8" target="EWqLKH0IZXW_5swnIQfz-10">
          <mxGeometry relative="1" as="geometry" />
        </mxCell>
        <mxCell id="EWqLKH0IZXW_5swnIQfz-8" value="Encender testigo 1&lt;div&gt;(DO_01)&lt;/div&gt;" style="rounded=0;whiteSpace=wrap;html=1;" vertex="1" parent="1">
          <mxGeometry x="51.25" y="470" width="107.5" height="40" as="geometry" />
        </mxCell>
        <mxCell id="EWqLKH0IZXW_5swnIQfz-13" style="edgeStyle=orthogonalEdgeStyle;rounded=0;orthogonalLoop=1;jettySize=auto;html=1;exitX=0.5;exitY=1;exitDx=0;exitDy=0;entryX=0.5;entryY=0;entryDx=0;entryDy=0;" edge="1" parent="1" source="EWqLKH0IZXW_5swnIQfz-10" target="EWqLKH0IZXW_5swnIQfz-12">
          <mxGeometry relative="1" as="geometry" />
        </mxCell>
        <mxCell id="EWqLKH0IZXW_5swnIQfz-10" value="Dibujar casita&lt;br&gt;(Path_20)" style="rounded=0;whiteSpace=wrap;html=1;" vertex="1" parent="1">
          <mxGeometry x="51.25" y="530" width="107.5" height="40" as="geometry" />
        </mxCell>
        <mxCell id="EWqLKH0IZXW_5swnIQfz-18" style="edgeStyle=orthogonalEdgeStyle;rounded=0;orthogonalLoop=1;jettySize=auto;html=1;exitX=0.5;exitY=1;exitDx=0;exitDy=0;entryX=0.5;entryY=0;entryDx=0;entryDy=0;" edge="1" parent="1" source="EWqLKH0IZXW_5swnIQfz-12" target="EWqLKH0IZXW_5swnIQfz-17">
          <mxGeometry relative="1" as="geometry" />
        </mxCell>
        <mxCell id="EWqLKH0IZXW_5swnIQfz-12" value="Dibujar nombre de Davivienda&lt;br&gt;(Path_30 -&amp;gt; Path_130)" style="rounded=0;whiteSpace=wrap;html=1;" vertex="1" parent="1">
          <mxGeometry x="38.75" y="590" width="132.5" height="50" as="geometry" />
        </mxCell>
        <mxCell id="EWqLKH0IZXW_5swnIQfz-15" value="SI" style="edgeStyle=orthogonalEdgeStyle;rounded=0;orthogonalLoop=1;jettySize=auto;html=1;exitX=0.5;exitY=1;exitDx=0;exitDy=0;entryX=0.5;entryY=0;entryDx=0;entryDy=0;" edge="1" parent="1" source="EWqLKH0IZXW_5swnIQfz-2" target="EWqLKH0IZXW_5swnIQfz-14">
          <mxGeometry y="-11" relative="1" as="geometry">
            <mxPoint x="104.75" y="300" as="sourcePoint" />
            <mxPoint x="104.75" y="410" as="targetPoint" />
            <mxPoint as="offset" />
          </mxGeometry>
        </mxCell>
        <mxCell id="EWqLKH0IZXW_5swnIQfz-16" style="edgeStyle=orthogonalEdgeStyle;rounded=0;orthogonalLoop=1;jettySize=auto;html=1;exitX=0.5;exitY=1;exitDx=0;exitDy=0;entryX=0.5;entryY=0;entryDx=0;entryDy=0;" edge="1" parent="1" source="EWqLKH0IZXW_5swnIQfz-14" target="EWqLKH0IZXW_5swnIQfz-6">
          <mxGeometry relative="1" as="geometry" />
        </mxCell>
        <mxCell id="EWqLKH0IZXW_5swnIQfz-14" value="Apagar testigo 2&lt;div&gt;(DO_02)&lt;/div&gt;" style="rounded=0;whiteSpace=wrap;html=1;" vertex="1" parent="1">
          <mxGeometry x="51.25" y="340" width="107.5" height="40" as="geometry" />
        </mxCell>
        <mxCell id="EWqLKH0IZXW_5swnIQfz-19" style="edgeStyle=orthogonalEdgeStyle;rounded=0;orthogonalLoop=1;jettySize=auto;html=1;exitX=0.5;exitY=1;exitDx=0;exitDy=0;entryX=1;entryY=0.5;entryDx=0;entryDy=0;" edge="1" parent="1" source="EWqLKH0IZXW_5swnIQfz-17" target="EWqLKH0IZXW_5swnIQfz-1">
          <mxGeometry relative="1" as="geometry">
            <Array as="points">
              <mxPoint x="103.75" y="720" />
              <mxPoint x="453.75" y="720" />
              <mxPoint x="453.75" y="160" />
            </Array>
          </mxGeometry>
        </mxCell>
        <mxCell id="EWqLKH0IZXW_5swnIQfz-17" value="Apagar testigo 1&lt;div&gt;(DO_01)&lt;/div&gt;" style="rounded=0;whiteSpace=wrap;html=1;" vertex="1" parent="1">
          <mxGeometry x="49.75" y="660" width="107.5" height="40" as="geometry" />
        </mxCell>
        <mxCell id="EWqLKH0IZXW_5swnIQfz-24" style="edgeStyle=orthogonalEdgeStyle;rounded=0;orthogonalLoop=1;jettySize=auto;html=1;exitX=0.5;exitY=1;exitDx=0;exitDy=0;entryX=0.5;entryY=0;entryDx=0;entryDy=0;" edge="1" parent="1" source="EWqLKH0IZXW_5swnIQfz-20" target="EWqLKH0IZXW_5swnIQfz-23">
          <mxGeometry relative="1" as="geometry" />
        </mxCell>
        <mxCell id="EWqLKH0IZXW_5swnIQfz-20" value="Encender testigo 2&lt;div&gt;(DO_02)&lt;/div&gt;" style="rounded=0;whiteSpace=wrap;html=1;" vertex="1" parent="1">
          <mxGeometry x="256.25" y="340" width="107.5" height="40" as="geometry" />
        </mxCell>
        <mxCell id="EWqLKH0IZXW_5swnIQfz-26" style="edgeStyle=orthogonalEdgeStyle;rounded=0;orthogonalLoop=1;jettySize=auto;html=1;exitX=0.5;exitY=1;exitDx=0;exitDy=0;entryX=1;entryY=0.5;entryDx=0;entryDy=0;" edge="1" parent="1" source="EWqLKH0IZXW_5swnIQfz-23" target="EWqLKH0IZXW_5swnIQfz-1">
          <mxGeometry relative="1" as="geometry">
            <Array as="points">
              <mxPoint x="309.75" y="470" />
              <mxPoint x="453.75" y="470" />
              <mxPoint x="453.75" y="160" />
            </Array>
          </mxGeometry>
        </mxCell>
        <mxCell id="EWqLKH0IZXW_5swnIQfz-23" value="Ir a posición de mantenimiento" style="rounded=0;whiteSpace=wrap;html=1;" vertex="1" parent="1">
          <mxGeometry x="261.25" y="410" width="97.5" height="40" as="geometry" />
        </mxCell>
        <mxCell id="EWqLKH0IZXW_5swnIQfz-28" style="edgeStyle=orthogonalEdgeStyle;rounded=0;orthogonalLoop=1;jettySize=auto;html=1;exitX=0.5;exitY=1;exitDx=0;exitDy=0;entryX=0.5;entryY=0;entryDx=0;entryDy=0;" edge="1" parent="1" source="EWqLKH0IZXW_5swnIQfz-27" target="EWqLKH0IZXW_5swnIQfz-1">
          <mxGeometry relative="1" as="geometry" />
        </mxCell>
        <mxCell id="EWqLKH0IZXW_5swnIQfz-27" value="INICIO" style="ellipse;whiteSpace=wrap;html=1;aspect=fixed;" vertex="1" parent="1">
          <mxGeometry x="64.75" y="20" width="80" height="80" as="geometry" />
        </mxCell>
      </root>
    </mxGraphModel>
  </diagram>
</mxfile>
